<svg height="474pt" viewBox="0 -38 474 474" width="474pt" xmlns="http://www.w3.org/2000/svg"><path d="m403.300781 130.351562h51v261.597657h-51zm0 0" fill="#00acea"/><path d="m318.699219 190.152344h51.101562v201.699218h-51.101562zm0 0" fill="#fedb41"/><path d="m234.101562 258.050781h51v133.898438h-51zm0 0" fill="#00acea"/><g fill="#00efd1"><path d="m107 162.351562c55.199219 0 100 44.699219 100 99.699219-.070312 55.167969-44.832031 99.839844-100 99.800781-55.199219 0-100-44.601562-100-99.699218.070312-55.167969 44.832031-99.839844 100-99.800782zm0 0"/><path d="m467 398.949219h-460c-3.867188 0-7-3.132813-7-7 0-3.863281 3.132812-7 7-7h460c3.867188 0 7 3.136719 7 7 0 3.867187-3.132812 7-7 7zm0 0"/><path d="m461.199219 79.449219-14.800781-73.796875c-.382813-1.832032-1.457032-3.441406-3-4.5-1.3125-.910156-2.914063-1.300782-4.5-1.1015628-1.273438-.1289062-2.558594.1171878-3.699219.6992188l-70.898438 14.601562c-3.785156.800782-6.203125 4.515626-5.402343 8.300782.800781 3.78125 4.519531 6.199218 8.300781 5.398437l58-11.898437c-14.484375 26.042968-33.246094 49.472656-55.5 69.296875-21.4375 19.007812-45.5625 34.746093-71.597657 46.703125-45.5 21.097656-83.300781 25.296875-83.902343 25.398437-3.703125.417969-6.4375 3.65625-6.226563 7.378907.214844 3.722656 3.300782 6.628906 7.027344 6.621093h.699219c1.601562-.199219 40.199219-4.398437 87.902343-26.398437 27.375-12.496094 52.75-28.976563 75.296876-48.902344 22.929687-20.367188 42.324218-44.394531 57.402343-71.097656l11.199219 56.199218c.6875 3.261719 3.566406 5.597657 6.898438 5.597657.46875.019531.941406-.015625 1.402343-.097657 3.730469-.9375 6.09375-4.613281 5.398438-8.402343zm0 0"/></g><path d="m107 254.449219c-11.929688 0-21.601562-9.667969-21.601562-21.597657 0-11.929687 9.671874-21.601562 21.601562-21.601562s21.601562 9.671875 21.601562 21.601562c0 3.863282 3.132813 7 7 7 3.863282 0 7-3.136718 7-7-.011718-16.960937-11.976562-31.558593-28.601562-34.902343v-9.398438c0-3.867187-3.132812-7-7-7s-7 3.132813-7 7v9.398438c-17.929688 3.609375-30.207031 20.21875-28.402344 38.417969 1.808594 18.199218 17.113282 32.070312 35.402344 32.082031 11.929688-.082031 21.667969 9.523437 21.75 21.453125.082031 11.929687-9.519531 21.664062-21.449219 21.75h-.601562c-11.816407-.152344-21.3125-9.78125-21.300781-21.601563 0-3.867187-3.132813-7-7-7-3.863282 0-7 3.132813-7 7 .011718 16.957031 11.976562 31.558594 28.601562 34.898438v10.703125c0 3.863281 3.132812 7 7 7s7-3.136719 7-7v-10.703125c17.929688-3.609375 30.207031-20.214844 28.402344-38.414063-1.808594-18.203125-17.113282-32.070312-35.402344-32.085937zm0 0" fill="#fedb41"/></svg>