<svg height="447pt" viewBox="0 -24 447.08007 447" width="447pt" xmlns="http://www.w3.org/2000/svg"><path d="m447.078125 34.429688v258.871093c0 18.992188-15.394531 34.386719-34.386719 34.390625h-97.730468v-82.222656l-91.421876-29.480469-91.417968 29.480469v82.222656h-97.730469c-18.992187-.003906-34.38671875-15.398437-34.390625-34.390625v-258.871093c-.0078125-4.597657.910156-9.152344 2.699219-13.390626l.789062.171876 198.5625 133.679687c11.476563 7.75 26.484375 7.859375 38.070313.269531l204.320312-133.351562.207032-.078125c1.613281 4.039062 2.4375 8.351562 2.429687 12.699219zm0 0" fill="#00efd1"/><path d="m444.648438 21.730469-.207032.078125-204.320312 133.351562c-11.585938 7.589844-26.59375 7.480469-38.070313-.269531l-198.5625-133.679687-.789062-.171876c5.386719-12.730468 17.867187-20.9999995 31.691406-20.9999995h378.300781c14.089844-.0039063 26.757813 8.5937495 31.957032 21.6914065zm0 0" fill="#00acea"/><path d="m314.960938 327.691406v42.570313l-91.421876 29.476562-1-.316406v-123.53125l.371094-1.140625.628906.199219 91.421876-29.480469zm0 0" fill="#00acea"/><path d="m314.960938 245.46875-91.421876 29.480469-.628906-.199219-90.789062-29.28125 91.417968-29.480469zm0 0" fill="#fedb41"/><path d="m222.910156 274.75-.371094 1.140625v123.53125l-90.417968-29.160156v-124.792969zm0 0" fill="#2ed3ff"/></svg>