<svg xmlns="http://www.w3.org/2000/svg" height="512pt" version="1.1" viewBox="0 0 512 512.00001" width="512pt">
<g id="surface1">
<path d="M 455.617188 210.476562 C 444.714844 171.148438 422.53125 136.15625 391.46875 109.285156 C 360.121094 82.167969 321.886719 65.25 280.886719 60.355469 L 284.441406 30.566406 C 331.40625 36.171875 375.203125 55.546875 411.097656 86.597656 C 446.644531 117.351562 472.035156 157.414062 484.527344 202.460938 Z M 455.617188 210.476562 " style=" stroke:none;fill-rule:nonzero;fill:rgb(80.392157%,97.254902%,95.294118%);fill-opacity:1;" />
<path d="M 56.605469 210.191406 L 27.707031 202.132812 C 40.289062 157.011719 65.8125 116.921875 101.511719 86.195312 C 137.570312 55.164062 181.53125 35.890625 228.640625 30.457031 L 232.078125 60.261719 C 190.953125 65.003906 152.574219 81.835938 121.082031 108.933594 C 89.886719 135.78125 67.589844 170.796875 56.605469 210.191406 Z M 56.605469 210.191406 " style=" stroke:none;fill-rule:nonzero;fill:rgb(80.392157%,97.254902%,95.294118%);fill-opacity:1;" />
<path d="M 76.226562 30.460938 L 230.359375 30.460938 L 230.359375 60.460938 L 76.226562 60.460938 Z M 76.226562 30.460938 " style=" stroke:none;fill-rule:nonzero;fill:rgb(94.117647%,52.941176%,72.54902%);fill-opacity:1;" />
<path d="M 282.664062 30.429688 L 436.796875 30.429688 L 436.796875 60.429688 L 282.664062 60.429688 Z M 282.664062 30.429688 " style=" stroke:none;fill-rule:nonzero;fill:rgb(94.117647%,52.941176%,72.54902%);fill-opacity:1;" />
<path d="M 455.617188 210.476562 C 444.714844 171.148438 422.53125 136.15625 391.46875 109.285156 C 360.121094 82.167969 321.886719 65.25 280.886719 60.355469 L 284.441406 30.566406 C 331.40625 36.171875 375.203125 55.546875 411.097656 86.597656 C 446.644531 117.351562 472.035156 157.414062 484.527344 202.460938 Z M 455.617188 210.476562 " style=" stroke:none;fill-rule:nonzero;fill:rgb(13.72549%,84.313725%,87.058824%);fill-opacity:1;" />
<path d="M 282.664062 30.429688 L 436.796875 30.429688 L 436.796875 60.429688 L 282.664062 60.429688 Z M 282.664062 30.429688 " style=" stroke:none;fill-rule:nonzero;fill:rgb(90.980392%,22.352941%,54.509804%);fill-opacity:1;" />
<path d="M 161.734375 419.609375 L 353.699219 419.609375 L 353.699219 512 L 161.734375 512 Z M 161.734375 419.609375 " style=" stroke:none;fill-rule:nonzero;fill:rgb(49.803922%,29.803922%,7.843137%);fill-opacity:1;" />
<path d="M 255.914062 419.609375 L 353.699219 419.609375 L 353.699219 512 L 255.914062 512 Z M 255.914062 419.609375 " style=" stroke:none;fill-rule:nonzero;fill:rgb(24.313725%,14.901961%,2.352941%);fill-opacity:1;" />
<path d="M 214.761719 0 L 297.066406 0 L 297.066406 82.800781 L 214.761719 82.800781 Z M 214.761719 0 " style=" stroke:none;fill-rule:nonzero;fill:rgb(5.490196%,71.372549%,80%);fill-opacity:1;" />
<path d="M 255.914062 0 L 297.664062 0 L 297.664062 82.800781 L 255.914062 82.800781 Z M 255.914062 0 " style=" stroke:none;fill-rule:nonzero;fill:rgb(0%,49.803922%,55.686275%);fill-opacity:1;" />
<path d="M 28.417969 46.003906 L 62.535156 11.101562 L 97.4375 45.21875 L 63.320312 80.121094 Z M 28.417969 46.003906 " style=" stroke:none;fill-rule:nonzero;fill:rgb(90.980392%,22.352941%,54.509804%);fill-opacity:1;" />
<path d="M 415.578125 45.675781 L 449.695312 10.773438 L 484.597656 44.890625 L 450.480469 79.792969 Z M 415.578125 45.675781 " style=" stroke:none;fill-rule:nonzero;fill:rgb(90.980392%,22.352941%,54.509804%);fill-opacity:1;" />
<path d="M 415.578125 45.675781 L 449.695312 10.773438 L 484.597656 44.890625 L 450.480469 79.792969 Z M 415.578125 45.675781 " style=" stroke:none;fill-rule:nonzero;fill:rgb(68.235294%,16.862745%,40.784314%);fill-opacity:1;" />
<path d="M 430.027344 191.164062 L 512 191.164062 L 512 273.464844 L 430.027344 273.464844 Z M 430.027344 191.164062 " style=" stroke:none;fill-rule:nonzero;fill:rgb(5.490196%,71.372549%,80%);fill-opacity:1;" />
<path d="M 0 191.164062 L 82.996094 191.164062 L 82.996094 273.464844 L 0 273.464844 Z M 0 191.164062 " style=" stroke:none;fill-rule:nonzero;fill:rgb(5.490196%,71.372549%,80%);fill-opacity:1;" />
<path d="M 430.027344 191.164062 L 512 191.164062 L 512 273.464844 L 430.027344 273.464844 Z M 430.027344 191.164062 " style=" stroke:none;fill-rule:nonzero;fill:rgb(0%,49.803922%,55.686275%);fill-opacity:1;" />
<path d="M 353.203125 438.457031 L 390.976562 296.09375 L 306.003906 110.609375 L 201.785156 110.609375 L 120.988281 299.214844 L 161.996094 438.835938 Z M 353.203125 438.457031 " style=" stroke:none;fill-rule:nonzero;fill:rgb(99.215686%,93.72549%,71.764706%);fill-opacity:1;" />
<path d="M 270.453125 255.792969 L 270.585938 110.617188 L 240.53125 110.609375 L 240.453125 255.988281 L 221.089844 275.792969 L 255.992188 309.910156 L 290.109375 275.007812 Z M 270.453125 255.792969 " style=" stroke:none;fill-rule:nonzero;fill:rgb(99.607843%,85.098039%,32.54902%);fill-opacity:1;" />
<path d="M 390.976562 296.09375 L 306.003906 110.609375 L 255.914062 110.609375 L 255.914062 438.648438 L 353.203125 438.457031 Z M 390.976562 296.09375 " style=" stroke:none;fill-rule:nonzero;fill:rgb(99.607843%,85.098039%,32.54902%);fill-opacity:1;" />
<path d="M 290.167969 275 L 270.507812 255.785156 L 270.585938 110.617188 L 255.914062 110.609375 L 256.050781 309.902344 Z M 290.167969 275 " style=" stroke:none;fill-rule:nonzero;fill:rgb(99.215686%,59.607843%,17.254902%);fill-opacity:1;" />
</g>
</svg>