<?xml version="1.0" encoding="iso-8859-1"?>
<!-- Generator: Adobe Illustrator 19.0.0, SVG Export Plug-In . SVG Version: 6.00 Build 0)  -->
<svg version="1.1" id="Capa_1" xmlns="http://www.w3.org/2000/svg" xmlns:xlink="http://www.w3.org/1999/xlink" x="0px" y="0px"
	 viewBox="0 0 493.9 493.9" style="enable-background:new 0 0 493.9 493.9;" xml:space="preserve">
<path style="fill:#FEDB41;" d="M361.2,249.6c2.9-0.2,5.9-0.3,8.9-0.3c67.5,0,122.3,54.7,122.3,122.3c0,67.5-54.7,122.3-122.3,122.3
	c-67.5,0-122.3-54.7-122.3-122.3l0,0c0-2,0-4,0.1-5.9C250.9,303.8,299.5,254,361.2,249.6z"/>
<g>
	<path style="fill:#00EFD1;" d="M417.5,127.1v131.7c-15-6.3-31.2-9.6-47.5-9.6c-3,0-5.9,0.1-8.9,0.3V127.1H417.5z"/>
	<path style="fill:#00EFD1;" d="M302.2,269.8L302.2,269.8c-32.3,21.5-52.4,57.1-54.3,95.8h-2.1V199.3h56.3v70.5H302.2z"/>
	<rect x="130.5" y="273.4" style="fill:#00EFD1;" width="56.3" height="92.2"/>
	<rect x="15.1" y="252.7" style="fill:#00EFD1;" width="56.3" height="112.9"/>
	
		<rect x="91.01" y="149.252" transform="matrix(-0.3758 0.9267 -0.9267 -0.3758 303.136 150.1198)" style="fill:#00EFD1;" width="20" height="55.8"/>
	
		<rect x="181.005" y="145.398" transform="matrix(-0.7645 0.6446 -0.6446 -0.7645 485.3712 133.4811)" style="fill:#00EFD1;" width="74.599" height="20"/>
	
		<rect x="295.883" y="67.516" transform="matrix(-0.8159 0.5781 -0.5781 -0.8159 646.6743 -50.8478)" style="fill:#00EFD1;" width="71.096" height="19.999"/>
</g>
<g>
	<path style="fill:#00ACEA;" d="M43.3,124.9c-23.1,0-41.8,18.7-41.8,41.8s18.7,41.8,41.8,41.8s41.8-18.7,41.8-41.8l0,0
		C85.1,143.6,66.4,124.9,43.3,124.9z"/>
	<path style="fill:#00ACEA;" d="M274,72.4c-23.1,0-41.8,18.7-41.8,41.8S250.9,156,274,156s41.8-18.7,41.8-41.8
		C315.8,91.2,297.1,72.5,274,72.4z"/>
	<path style="fill:#00ACEA;" d="M389.4,0c-23.1,0-41.8,18.7-41.8,41.8s18.7,41.8,41.8,41.8s41.8-18.7,41.8-41.8l0,0
		C431.1,18.7,412.4,0,389.4,0z"/>
	<path style="fill:#00ACEA;" d="M158.6,145.8c-23.1,0-41.8,18.7-41.8,41.8s18.7,41.8,41.8,41.8s41.8-18.7,41.8-41.8l0,0
		C200.4,164.6,181.7,145.9,158.6,145.8z"/>
	<path style="fill:#00ACEA;" d="M411.1,398.4c21.1-28.9,14.7-69.4-14.1-90.5c-28.9-21.1-69.4-14.7-90.5,14.1
		c-21.1,28.9-14.7,69.4,14.1,90.5c22.7,16.6,53.6,16.6,76.3,0l28.4,28.4c3.9,3.9,10.2,3.9,14.1,0s3.9-10.2,0-14.1L411.1,398.4z
		 M314.2,360.4c0-24.7,20-44.7,44.6-44.7c24.7,0,44.7,20,44.7,44.6c0,24.7-20,44.7-44.6,44.7l0,0C334.2,405,314.3,385,314.2,360.4z"
		/>
</g>
<g>
</g>
<g>
</g>
<g>
</g>
<g>
</g>
<g>
</g>
<g>
</g>
<g>
</g>
<g>
</g>
<g>
</g>
<g>
</g>
<g>
</g>
<g>
</g>
<g>
</g>
<g>
</g>
<g>
</g>
</svg>
