<svg height="464pt" viewBox="0 0 464 464" width="464pt" xmlns="http://www.w3.org/2000/svg"><path d="m184 168h96c8.835938 0 16 7.164062 16 16v96c0 8.835938-7.164062 16-16 16h-96c-8.835938 0-16-7.164062-16-16v-96c0-8.835938 7.164062-16 16-16zm0 0" fill="#ffc477"/><path d="m184 0h96c8.835938 0 16 7.164062 16 16v96c0 8.835938-7.164062 16-16 16h-96c-8.835938 0-16-7.164062-16-16v-96c0-8.835938 7.164062-16 16-16zm0 0" fill="#ff9478"/><path d="m184 336h96c8.835938 0 16 7.164062 16 16v96c0 8.835938-7.164062 16-16 16h-96c-8.835938 0-16-7.164062-16-16v-96c0-8.835938 7.164062-16 16-16zm0 0" fill="#c6c5ca"/><path d="m352 168h96c8.835938 0 16 7.164062 16 16v96c0 8.835938-7.164062 16-16 16h-96c-8.835938 0-16-7.164062-16-16v-96c0-8.835938 7.164062-16 16-16zm0 0" fill="#d5b4eb"/><path d="m352 0h96c8.835938 0 16 7.164062 16 16v96c0 8.835938-7.164062 16-16 16h-96c-8.835938 0-16-7.164062-16-16v-96c0-8.835938 7.164062-16 16-16zm0 0" fill="#ffe477"/><path d="m352 336h96c8.835938 0 16 7.164062 16 16v96c0 8.835938-7.164062 16-16 16h-96c-8.835938 0-16-7.164062-16-16v-96c0-8.835938 7.164062-16 16-16zm0 0" fill="#c9eeae"/><path d="m16 168h96c8.835938 0 16 7.164062 16 16v96c0 8.835938-7.164062 16-16 16h-96c-8.835938 0-16-7.164062-16-16v-96c0-8.835938 7.164062-16 16-16zm0 0" fill="#00eed1"/><path d="m16 0h96c8.835938 0 16 7.164062 16 16v96c0 8.835938-7.164062 16-16 16h-96c-8.835938 0-16-7.164062-16-16v-96c0-8.835938 7.164062-16 16-16zm0 0" fill="#78b9eb"/><path d="m16 336h96c8.835938 0 16 7.164062 16 16v96c0 8.835938-7.164062 16-16 16h-96c-8.835938 0-16-7.164062-16-16v-96c0-8.835938 7.164062-16 16-16zm0 0" fill="#f490c0"/></svg>