<?xml version="1.0" encoding="iso-8859-1"?>
<!-- Generator: Adobe Illustrator 19.0.0, SVG Export Plug-In . SVG Version: 6.00 Build 0)  -->
<svg version="1.1" id="Capa_1" xmlns="http://www.w3.org/2000/svg" xmlns:xlink="http://www.w3.org/1999/xlink" x="0px" y="0px"
	 viewBox="0 0 471.249 471.249" style="enable-background:new 0 0 471.249 471.249;" xml:space="preserve">
<path style="fill:#4DCFE0;" d="M350.563,238.237v146.808c-0.522,47.543-38.661,86.204-86.204,86.204H206.89
	c-47.543,0-86.204-38.661-86.204-86.204V238.237h0.522h114.416H350.563L350.563,238.237z"/>
<path style="fill:#D4E1F4;" d="M206.89,142.106c-47.543,0-86.204,38.661-86.204,86.204v15.151h0.522h103.967V142.106H206.89z"/>
<path style="fill:#00BBD3;" d="M264.359,142.106h-18.286v101.355h103.967h0.522V228.31
	C350.563,180.767,311.902,142.106,264.359,142.106z"/>
<g>
	<path style="fill:#3A2C51;" d="M251.298,142.106v-31.347c0-8.882,7.837-16.718,16.718-16.718h26.645
		c26.645,0,48.065-21.42,48.065-48.065V15.673C342.727,6.792,335.935,0,327.053,0c-8.882,0-15.673,6.792-15.673,15.673v30.302
		c0,8.882-7.837,16.718-16.718,16.718h-26.645c-26.645,0-48.065,21.42-48.065,48.065v31.347h15.673H251.298z"/>
	<polygon style="fill:#3A2C51;" points="235.624,142.106 219.951,142.106 219.951,243.461 235.624,243.461 251.298,243.461 
		251.298,142.106 	"/>
</g>
<g>
</g>
<g>
</g>
<g>
</g>
<g>
</g>
<g>
</g>
<g>
</g>
<g>
</g>
<g>
</g>
<g>
</g>
<g>
</g>
<g>
</g>
<g>
</g>
<g>
</g>
<g>
</g>
<g>
</g>
</svg>
